<?xml version="1.0" encoding="UTF-8" standalone="no"?>
<!-- Created with Inkscape (http://www.inkscape.org/) -->

<svg
   xmlns:dc="http://purl.org/dc/elements/1.1/"
   xmlns:cc="http://creativecommons.org/ns#"
   xmlns:rdf="http://www.w3.org/1999/02/22-rdf-syntax-ns#"
   xmlns:svg="http://www.w3.org/2000/svg"
   xmlns="http://www.w3.org/2000/svg"
   xmlns:xlink="http://www.w3.org/1999/xlink"
   xmlns:sodipodi="http://sodipodi.sourceforge.net/DTD/sodipodi-0.dtd"
   xmlns:inkscape="http://www.inkscape.org/namespaces/inkscape"
   id="svg2"
   version="1.1"
   inkscape:version="0.48.3.1 r9886"
   width="2134"
   height="635"
   sodipodi:docname="LogoCaNova2.svg"
   inkscape:export-filename="/home/sabeiro/dauvi/webapp/canova/www/img/LogoCaNova.png"
   inkscape:export-xdpi="90"
   inkscape:export-ydpi="90">
  <metadata
     id="metadata8">
    <rdf:RDF>
      <cc:Work
         rdf:about="">
        <dc:format>image/svg+xml</dc:format>
        <dc:type
           rdf:resource="http://purl.org/dc/dcmitype/StillImage" />
        <dc:title></dc:title>
      </cc:Work>
    </rdf:RDF>
  </metadata>
  <defs
     id="defs6">
    <linearGradient
       id="linearGradient3790">
      <stop
         style="stop-color:#e10512;stop-opacity:1;"
         offset="0"
         id="stop3792" />
      <stop
         id="stop3798"
         offset="0.5"
         style="stop-color:#e10512;stop-opacity:0.65217394;" />
      <stop
         style="stop-color:#e10512;stop-opacity:0.6695652;"
         offset="1"
         id="stop3794" />
    </linearGradient>
    <linearGradient
       id="linearGradient3780">
      <stop
         style="stop-color:#014898;stop-opacity:1;"
         offset="0"
         id="stop3782" />
      <stop
         id="stop3788"
         offset="0.5"
         style="stop-color:#014898;stop-opacity:0.49803922;" />
      <stop
         style="stop-color:#0148ab;stop-opacity:0.86086959;"
         offset="1"
         id="stop3784" />
    </linearGradient>
    <linearGradient
       inkscape:collect="always"
       xlink:href="#linearGradient3780"
       id="linearGradient3786"
       x1="85.796164"
       y1="348.54399"
       x2="2069.7363"
       y2="348.54399"
       gradientUnits="userSpaceOnUse" />
    <linearGradient
       inkscape:collect="always"
       xlink:href="#linearGradient3790"
       id="linearGradient3796"
       x1="11.269433"
       y1="322.96358"
       x2="2130.6461"
       y2="322.96358"
       gradientUnits="userSpaceOnUse"
       gradientTransform="translate(1035.6119,-259.50368)" />
    <linearGradient
       inkscape:collect="always"
       xlink:href="#linearGradient3780"
       id="linearGradient3063"
       gradientUnits="userSpaceOnUse"
       x1="85.796164"
       y1="348.54399"
       x2="2069.7363"
       y2="348.54399" />
    <linearGradient
       inkscape:collect="always"
       xlink:href="#linearGradient3780"
       id="linearGradient3072"
       gradientUnits="userSpaceOnUse"
       x1="85.796164"
       y1="348.54399"
       x2="2069.7363"
       y2="348.54399" />
    <linearGradient
       inkscape:collect="always"
       xlink:href="#linearGradient3790"
       id="linearGradient3075"
       gradientUnits="userSpaceOnUse"
       gradientTransform="translate(1035.6119,-259.50368)"
       x1="11.269433"
       y1="322.96358"
       x2="2130.6461"
       y2="322.96358" />
    <linearGradient
       inkscape:collect="always"
       xlink:href="#linearGradient3780"
       id="linearGradient3081"
       gradientUnits="userSpaceOnUse"
       x1="85.796164"
       y1="348.54399"
       x2="2069.7363"
       y2="348.54399"
       gradientTransform="translate(1026.0007,-266.71212)" />
    <linearGradient
       inkscape:collect="always"
       xlink:href="#linearGradient3790"
       id="linearGradient3083"
       gradientUnits="userSpaceOnUse"
       gradientTransform="translate(725.64917,-24.028119)"
       x1="11.269433"
       y1="322.96358"
       x2="2130.6461"
       y2="322.96358" />
  </defs>
  <sodipodi:namedview
     pagecolor="#ffffff"
     bordercolor="#666666"
     borderopacity="1"
     objecttolerance="10"
     gridtolerance="10"
     guidetolerance="10"
     inkscape:pageopacity="0"
     inkscape:pageshadow="2"
     inkscape:window-width="1366"
     inkscape:window-height="720"
     id="namedview4"
     showgrid="false"
     inkscape:zoom="0.41617907"
     inkscape:cx="1319.761"
     inkscape:cy="413.74368"
     inkscape:window-x="0"
     inkscape:window-y="0"
     inkscape:window-maximized="1"
     inkscape:current-layer="layer2" />
  <g
     inkscape:groupmode="layer"
     id="layer1"
     inkscape:label="rosso]"
     style="display:inline">
    <path
       style="fill:url(#linearGradient3796);fill-opacity:1;fill-rule:evenodd;stroke:#000000;stroke-opacity:0.51674643;display:inline"
       d="m 1277.8062,377.75481 c -57.4604,-9.08538 -83.5896,-46.89601 -73.4046,-106.22114 4.8822,-28.43772 18.7913,-54.74745 40.3422,-76.30959 27.3734,-27.3877 60.9024,-42.16868 104.3966,-46.02242 21.4965,-1.90467 50.4666,0.95333 67.4488,6.65404 20.7933,6.98008 35.7168,18.90866 43.15,34.49045 5.0481,10.58198 7.067,20.15563 7.067,33.51173 l 0,10.43462 -37.7667,0 -37.7667,0 -0.035,-5.75 c -0.093,-15.37734 -9.1823,-24.19768 -26.9943,-26.19521 -25.5306,-2.86314 -48.585,8.44532 -64.1069,31.44521 -5.3901,7.98695 -7.5052,12.29432 -11.2389,22.88742 -8.2045,23.27733 -7.4198,45.75317 2.0037,57.39323 6.3744,7.8737 17.4223,12.21935 31.0654,12.21935 10.1417,0 16.7674,-1.44827 25.4323,-5.55912 8.4137,-3.99169 18.2042,-13.69084 22.9068,-22.69315 l 3,-5.74298 39.3174,-0.002 39.3174,-0.002 -0.6849,2.25 c -3.8679,12.70735 -15.7535,31.15244 -27.9006,43.29867 -22.6246,22.62296 -53.3102,36.10049 -92.0493,40.42925 -12.5028,1.39708 -43.279,1.10047 -53.5,-0.51561 z"
       id="path3045" />
    <path
       style="fill:url(#linearGradient3083);fill-opacity:1;fill-rule:evenodd;stroke:#000000;stroke-opacity:0.51674643;display:inline"
       d="m 734.51956,632.7267 c -16.86268,30.04489 33.92926,-122.45726 46.39412,-170.69683 26.88173,-60.25363 11.81157,-23.84867 57.55067,-167.12367 45.739,-143.275 67.90792,-212.286669 69.82142,-217.968199 14.4148,-42.79831 31.00837,-72.1439279 81.93716,-75.1757789 63.02597,-3.7520134 148.11697,2.8349318 218.78237,2.3313955 115.9365,1.0518819 162.6407,-6.6981455 406.2328,-2.9440537 247.6271,11.1274151 438.8239,-10.2352102 513.6623,9.4682421 2.099,7.6838 7.1681,68.342202 5.2836,76.775562 -1.6452,7.36263 -146.1582,545.830182 -147.265,547.093242 -0.7701,0.87896 -48.1474,-0.4401 -48.449,0.74301 -0.7978,3.1296 8.4313,-52.23684 25.664,-109.20066 7.3821,-22.56066 131.6862,-414.85313 126.1044,-466.553169 -65.0406,-21.48851 -72.053,-15.2803 -197.3476,-15.75442 -403.0938,-1.525324 -865.3257,-2.09625 -894.90403,2.74691 -56.5887,56.441319 -76.5852,178.017759 -111.2658,273.567939 -59.8663,178.24659 -36.7487,95.00887 -88.6343,254.73184 -6.3396,19.525 -16.83082,60.07227 -17.44042,60.73734 -79.7559,7.84459 13.44481,5.08706 -46.12669,-2.7787 z"
       id="path3043"
       inkscape:connector-curvature="0"
       sodipodi:nodetypes="ccscscccscsccsccccc" />
    <path
       style="fill:url(#linearGradient3796);fill-opacity:1;fill-rule:evenodd;stroke:#000000;stroke-opacity:0.51674643;display:inline"
       d="m 1759.8062,374.16195 c -1.375,-0.55207 -5.4279,-1.14671 -9.0065,-1.32142 -11.6045,-0.56653 -19.7102,-5.92416 -24.1169,-15.94063 -3.3221,-7.55087 -3.1626,-20.4873 0.3752,-30.442 5.8783,-16.54064 17.5346,-29.98959 32.3587,-37.33523 8.5075,-4.21562 8.9973,-4.33017 18.5141,-4.33017 6.4869,0 10.1959,0.4205 11.0254,1.25 0.7402,0.74021 3.9213,1.25896 7.8,1.27196 10.79,0.0362 18.9645,5.25091 23.4618,14.96682 1.715,3.70498 2.0778,6.38777 2.0302,15.01122 -0.049,8.88271 -0.4626,11.53145 -2.6851,17.1965 -9.2527,23.5855 -30.772,40.84906 -50.7569,40.71902 -3.575,-0.0233 -7.625,-0.49399 -9,-1.04607 z"
       id="path3041" />
    <g
       id="g3078">
      <path
         id="path3039"
         d="M 1605.0938 154.28125 L 1511.1875 262.96875 C 1459.5495 322.74641 1416.9398 372.24051 1416.5 372.96875 C 1415.8413 374.0593 1423.2126 374.28125 1458.2188 374.28125 L 1500.7188 374.28125 L 1513.2188 358.90625 C 1520.1007 350.44742 1526.4546 343.24742 1527.3438 342.90625 C 1528.2327 342.56509 1549.1713 342.28125 1573.8438 342.28125 C 1608.633 342.28125 1618.8726 342.56185 1619.5 343.53125 C 1619.945 344.21875 1620.5375 351.30625 1620.8125 359.28125 L 1621.3125 373.78125 L 1662.5625 374.0625 L 1703.8125 374.3125 L 1703.75 371.0625 C 1703.7132 369.2689 1700.4507 319.85625 1696.5 261.28125 L 1689.3125 154.78125 L 1647.1875 154.53125 L 1605.0938 154.28125 z M 1617.6875 229.5 C 1619.1507 229.78178 1619.3125 233.18583 1619.3125 263.3125 L 1619.3125 296.78125 L 1592.625 297.0625 C 1573.8719 297.24961 1565.7327 296.99982 1565.25 296.21875 C 1564.4003 294.84389 1564.1079 295.26215 1592.625 259 C 1608.6 238.68636 1616.5789 229.28649 1617.6875 229.5 z "
         style="fill:url(#linearGradient3075);fill-opacity:1;fill-rule:evenodd;stroke:#000000;stroke-opacity:0.51674642999999998;display:inline" />
    </g>
  </g>
  <g
     inkscape:groupmode="layer"
     id="layer2"
     inkscape:label="blu"
     style="display:inline">
    <g
       id="g3066">
      <path
         id="path3061"
         d="M 1323.7812 409.03125 C 1278.7984 408.92395 1242.5782 419.11585 1209.2188 441.28125 C 1195.3055 450.52575 1174.7797 470.7309 1166.4375 483.375 C 1155.1825 500.434 1147.7736 518.2749 1144.1875 536.9375 C 1141.9059 548.8087 1141.9391 568.4207 1144.25 577.6875 C 1149.9029 600.3559 1165.5685 617.88105 1189.125 627.90625 C 1199.4118 632.28415 1216.4242 636.66085 1228.7812 638.09375 C 1234.0062 638.69965 1239.8563 639.4007 1241.7812 639.625 L 1241.8125 639.625 C 1249.167 640.4819 1283.7454 639.2185 1293.1875 637.75 C 1335.1324 631.2266 1369.6844 614.3926 1396.875 587.25 C 1418.7095 565.4541 1431.1771 542.96155 1437.4062 514.15625 C 1439.9727 502.28635 1440.0233 476.3482 1437.5 467.1875 C 1426.8362 428.4717 1389.1116 409.18695 1323.7812 409.03125 z M 1311.4688 462.65625 C 1318.4357 462.66486 1325.2829 463.30045 1329.3125 464.53125 C 1344.2537 469.09485 1352.7812 480.6329 1352.7812 496.25 C 1352.7812 514.4874 1343.1432 540.4224 1330.3125 556.6875 C 1319.3243 570.6169 1304.5941 580.3742 1288.6875 584.1875 C 1278.5861 586.6091 1262.0057 586.79545 1253.8125 584.59375 C 1234.6942 579.45615 1226.4002 564.5295 1230.2188 542.125 C 1236.9474 502.6452 1260.8933 472.91765 1292.7812 464.46875 C 1297.3861 463.2485 1304.5018 462.64764 1311.4688 462.65625 z "
         style="display:inline;fill:url(#linearGradient3063);fill-opacity:1;stroke:#000000;stroke-width:2.29999995000000013;stroke-miterlimit:4;stroke-opacity:0.56459333000000000;stroke-dasharray:none" />
    </g>
    <path
       style="display:inline;fill:url(#linearGradient3786);fill-opacity:1;stroke:#000000;stroke-width:2.29999995000000013;stroke-miterlimit:4;stroke-opacity:0.56459333000000000;stroke-dasharray:none"
       d="m 818.95911,636.36101 c 14.41171,-36.5827 87.4615,-218.0516 88.12431,-218.9167 1.39351,-1.819 85.23356,-1.819 86.38796,0 0.4363,0.6875 8.96542,27.5049 18.95342,59.5944 9.9881,32.0894 18.6576,58.8419 19.2657,59.45 0.6976,0.6976 1.4521,0.755 2.0447,0.1556 0.5166,-0.5225 11.389,-27.275 24.1609,-59.45 12.772,-32.175 23.6545,-59.0625 24.1834,-59.75 0.7407,-0.963 10.1047,-1.25 40.78,-1.25 21.9002,0 40.06,0.3906 40.3551,0.8681 0.2951,0.4775 -19.3686,50.09 -43.6971,110.25 l -44.2336,109.3819 -43.0661,0.2604 -43.06602,0.2605 -17.8404,-61.5105 c -14.092,-48.5865 -18.1798,-61.5104 -19.4552,-61.5104 -1.2012,0 -7.9134,15.6894 -26.20386,61.25 l -24.58914,61.25 -41.22056,0.2611 c -22.67131,0.1437 -41.0689,-0.1238 -40.88351,-0.5944 z"
       id="path3057" />
    <path
       style="display:inline;fill:url(#linearGradient3786);fill-opacity:1;stroke:#000000;stroke-width:2.29999995000000013;stroke-miterlimit:4;stroke-opacity:0.56459333000000000;stroke-dasharray:none"
       d="m 1461.7987,630.44431 c 0.01,-18.0439 5.0761,-212.5683 5.5597,-213.3509 0.6702,-1.0843 86.1175,-1.2312 86.7762,-0.1491 0.2511,0.4125 -0.4076,26.85 -1.4638,58.75 -2.0662,62.406 -2.0821,70 -0.147,70 0.6752,0 22.4397,-28.8 48.3655,-64 25.9257,-35.2 47.6483,-64.3307 48.2723,-64.7347 0.624,-0.4041 21.305,-0.7416 45.9578,-0.75 39.1485,-0.013 44.7824,0.1729 44.5,1.4714 -0.1778,0.8177 -39.8565,50.5427 -88.1748,110.5 l -87.8515,109.0133 -50.8985,0 -50.8985,0 0,-6.75 z"
       id="path3055" />
    <path
       style="display:inline;fill:url(#linearGradient3072);fill-opacity:1;stroke:#000000;stroke-width:2.29999995000000013;stroke-miterlimit:4;stroke-opacity:0.56459333000000000;stroke-dasharray:none"
       d="M 1769.9062 416.1875 L 1765.9375 420.9375 C 1756.8112 431.8492 1596.7812 635.7224 1596.7812 636.4375 C 1596.7812 636.8667 1614.2343 637.11275 1635.5312 636.96875 L 1674.25 636.6875 L 1685.0312 622.1875 C 1690.9727 614.2125 1696.5844 607.125 1697.5 606.4375 C 1699.6552 604.8193 1777.8763 604.61395 1780.875 606.21875 C 1782.6395 607.16305 1782.7812 608.44825 1782.7812 620.65625 C 1782.7812 628.01685 1783.0724 634.755 1783.4062 635.625 C 1783.9449 637.0283 1788.2313 637.1875 1821.4062 637.1875 L 1858.7812 637.1875 L 1858.7812 634.4375 C 1858.7782 627.0164 1845.7916 417.98205 1845.2812 417.15625 C 1844.9236 416.57755 1829.94 416.1875 1807.2812 416.1875 L 1769.9062 416.1875 z M 1780.2188 492.1875 C 1782.4946 492.1875 1783.8239 556.7696 1781.5938 559 C 1780.7288 559.8647 1773.8758 560.1875 1757.0625 560.1875 C 1736.7699 560.1875 1733.6498 559.9924 1733.125 558.625 C 1732.7932 557.7603 1733.4038 555.8478 1734.4688 554.375 C 1735.5335 552.9022 1745.9755 538.3 1757.6875 521.9375 C 1769.3996 505.575 1779.5338 492.1875 1780.2188 492.1875 z "
       id="path3053" />
    <path
       style="fill:url(#linearGradient3081);fill-opacity:1;stroke:#000000;stroke-width:2.29999995;stroke-miterlimit:4;stroke-opacity:0.56459333;stroke-dasharray:none;display:inline"
       d="m 1731.5143,368.39059 c -8.1501,-1.9191 -14.1111,-7.0614 -17.8617,-15.4084 -3.3187,-7.386 -3.1494,-20.3585 0.396,-30.3346 5.8547,-16.4741 17.5439,-29.9942 32.2198,-37.2664 7.5961,-3.764 9.5875,-4.3132 17.0641,-4.7056 4.6554,-0.2443 8.4643,-0.048 8.4643,0.4362 0,0.4843 -2.5875,1.8942 -5.75,3.1331 -13.0559,5.1146 -26.4732,18.2584 -33.4186,32.7373 -9.2467,19.2762 -8.4818,36.717 2.1407,48.8154 3.3631,3.8303 3.0521,4.078 -3.2546,2.593 z"
       id="path3049"
       inkscape:connector-curvature="0" />
    <path
       style="fill:url(#linearGradient3786);fill-opacity:1;stroke:#000000;stroke-width:2.29999995;stroke-miterlimit:4;stroke-opacity:0.56459333;stroke-dasharray:none;display:inline"
       d="m 844.66081,575.15867 c -30.80171,3.21972 -16.9389,-1.95701 -47.28515,0.37671 50.76957,-153.3387 71.62891,-209.55648 140.87767,-419.81385 10.01387,-30.13594 40.28648,-101.946169 60.38797,-106.611306 37.3838,-8.675995 211.7306,-5.843731 311.7817,-7.629769 261.1354,4.596138 378.0099,4.60708 603.6267,4.093458 85.4886,0.148093 152.8814,-3.95378 166.6664,19.183393 11.8385,21.218999 3.0558,88.106654 -38.3675,207.047394 -59.1817,188.46892 -94.2724,299.87965 -97.2708,312.35265 -5.942,0.9503 -39.7999,3.88628 -40.8875,2.99698 -0.4504,-0.3683 29.0378,-110.46218 63.4525,-217.00568 48.3014,-149.53489 46.7393,-145.01358 57.041,-179.36437 16.2006,-54.02054 31.0722,-57.04703 11.3045,-82.17247 -38.2439,-14.029684 -107.2057,-8.811475 -295.0011,-5.59917 -157.2515,0.53094 -512.7793,-7.317403 -627.6919,-6.573373 -42.1941,0.273196 -79.1592,11.700543 -100.0873,43.450943 -41.17229,62.46329 -61.0964,153.20298 -78.90353,210.9077"
       id="path2989"
       inkscape:connector-curvature="0"
       sodipodi:nodetypes="cccsccccccssccssc" />
  </g>
  <g
     inkscape:groupmode="layer"
     id="layer3"
     inkscape:label="tmp"
     style="display:inline" />
</svg>
