<?xml version="1.0" encoding="UTF-8" standalone="no"?>
<!-- Created with Inkscape (http://www.inkscape.org/) -->

<svg
   xmlns:dc="http://purl.org/dc/elements/1.1/"
   xmlns:cc="http://creativecommons.org/ns#"
   xmlns:rdf="http://www.w3.org/1999/02/22-rdf-syntax-ns#"
   xmlns:svg="http://www.w3.org/2000/svg"
   xmlns="http://www.w3.org/2000/svg"
   xmlns:xlink="http://www.w3.org/1999/xlink"
   xmlns:sodipodi="http://sodipodi.sourceforge.net/DTD/sodipodi-0.dtd"
   xmlns:inkscape="http://www.inkscape.org/namespaces/inkscape"
   id="svg2"
   version="1.1"
   inkscape:version="0.48.3.1 r9886"
   width="2134"
   height="635"
   sodipodi:docname="LogoCaNova.svg">
  <metadata
     id="metadata8">
    <rdf:RDF>
      <cc:Work
         rdf:about="">
        <dc:format>image/svg+xml</dc:format>
        <dc:type
           rdf:resource="http://purl.org/dc/dcmitype/StillImage" />
        <dc:title />
      </cc:Work>
    </rdf:RDF>
  </metadata>
  <defs
     id="defs6">
    <linearGradient
       id="linearGradient3790">
      <stop
         style="stop-color:#e10512;stop-opacity:1;"
         offset="0"
         id="stop3792" />
      <stop
         id="stop3798"
         offset="0.5"
         style="stop-color:#e10512;stop-opacity:0.65217394;" />
      <stop
         style="stop-color:#e10512;stop-opacity:0.6695652;"
         offset="1"
         id="stop3794" />
    </linearGradient>
    <linearGradient
       id="linearGradient3780">
      <stop
         style="stop-color:#014898;stop-opacity:1;"
         offset="0"
         id="stop3782" />
      <stop
         id="stop3788"
         offset="0.5"
         style="stop-color:#014898;stop-opacity:0.49803922;" />
      <stop
         style="stop-color:#0148ab;stop-opacity:0.86086959;"
         offset="1"
         id="stop3784" />
    </linearGradient>
    <linearGradient
       inkscape:collect="always"
       xlink:href="#linearGradient3780"
       id="linearGradient3786"
       x1="85.796164"
       y1="348.54399"
       x2="2069.7363"
       y2="348.54399"
       gradientUnits="userSpaceOnUse" />
    <linearGradient
       inkscape:collect="always"
       xlink:href="#linearGradient3790"
       id="linearGradient3796"
       x1="11.269433"
       y1="322.96358"
       x2="2130.6461"
       y2="322.96358"
       gradientUnits="userSpaceOnUse" />
  </defs>
  <sodipodi:namedview
     pagecolor="#ffffff"
     bordercolor="#666666"
     borderopacity="1"
     objecttolerance="10"
     gridtolerance="10"
     guidetolerance="10"
     inkscape:pageopacity="0"
     inkscape:pageshadow="2"
     inkscape:window-width="1366"
     inkscape:window-height="720"
     id="namedview4"
     showgrid="false"
     inkscape:zoom="0.41617907"
     inkscape:cx="1426.0025"
     inkscape:cy="317.63121"
     inkscape:window-x="0"
     inkscape:window-y="0"
     inkscape:window-maximized="1"
     inkscape:current-layer="svg2" />
  <g
     inkscape:groupmode="layer"
     id="layer1"
     inkscape:label="rosso]"
     style="display:inline">
    <path
       style="fill:url(#linearGradient3796);fill-opacity:1;fill-rule:evenodd;stroke:#000000;stroke-opacity:0.51674643;display:inline"
       d="m 242.19427,637.25849 c -57.4604,-9.08538 -83.5896,-46.89601 -73.4046,-106.22114 4.8822,-28.43772 18.7913,-54.74745 40.3422,-76.30959 27.3734,-27.3877 60.90239,-42.16868 104.39658,-46.02242 21.49655,-1.90467 50.46667,0.95333 67.44881,6.65404 20.79329,6.98008 35.7168,18.90866 43.15001,34.49045 5.04808,10.58198 7.06698,20.15563 7.06698,33.51173 l 0,10.43462 -37.76667,0 -37.76666,0 -0.0348,-5.75 c -0.0929,-15.37734 -9.18231,-24.19768 -26.99428,-26.19521 -25.53063,-2.86314 -48.58503,8.44532 -64.10692,31.44521 -5.39015,7.98695 -7.50525,12.29432 -11.23895,22.88742 -8.2045,23.27733 -7.4198,45.75317 2.0037,57.39323 6.37439,7.8737 17.42236,12.21935 31.06541,12.21935 10.1417,0 16.76737,-1.44827 25.43228,-5.55912 8.41375,-3.99169 18.20424,-13.69084 22.90684,-22.69315 l 3,-5.74298 39.31739,-0.002 39.31739,-0.002 -0.68487,2.25 c -3.86792,12.70735 -15.75348,31.15244 -27.90059,43.29867 -22.62459,22.62296 -53.31022,36.10049 -92.04932,40.42925 -12.50282,1.39708 -43.27903,1.10047 -53.50003,-0.51561 z M 11.273172,635.12951 c -0.043,-1.19166 0.2899,-2.31666 0.7407,-2.5 0.4508,-0.18333 38.2425,-117.55833 83.9816,-260.83333 45.738998,-143.275 84.727598,-265.14853 86.641098,-270.83006 14.4148,-42.798308 45.55432,-84.868156 96.35404,-89.592648 4.92708,-0.45823 104.75014,-4.382445 105.85014,-4.877045 3.00444,-1.35093 1693.23195,0.5102946 1694.14005,1.8615746 0.3924,0.584 3.3083,1.63042 6.4798,2.3253604 20.2249,4.43178 37.5619,21.66715 43.4398,43.18506 2.099,7.6838 2.3625,27.4944 0.478,35.92776 -1.6452,7.36263 -174.992,548.232998 -176.0988,549.496058 -0.7701,0.87896 -48.1474,-0.4401 -48.449,0.74301 -0.7978,3.1296 6.0285,-13.79186 23.2612,-70.75568 7.3821,-22.56066 143.7003,-434.07562 138.1185,-485.775665 C 2001.1697,62.015403 1638.5411,68.223613 1167.2416,67.749486 764.14508,67.34397 301.91588,65.653236 272.3376,70.496401 215.74888,126.93772 195.75237,248.51416 161.07177,344.06434 c -59.8663,178.24659 -36.7487,95.00887 -88.634298,254.73184 -6.3396,19.525 -12.0252,36.04415 -12.6348,36.70922 -0.8423,0.9189 -6.6908,1.03895 -24.3594,0.5 -15.2289,-0.46452 -23.396,-0.3642 -23.6711,0.29078 -0.231,0.55 -0.4555,0.025 -0.499,-1.16667 z m 712.921078,-1.46388 c -1.375,-0.55207 -5.42789,-1.14671 -9.00642,-1.32142 -11.60454,-0.56653 -19.71024,-5.92416 -24.11698,-15.94063 -3.32201,-7.55087 -3.16256,-20.4873 0.37521,-30.442 5.87832,-16.54064 17.53464,-29.98959 32.35875,-37.33523 8.50749,-4.21562 8.99725,-4.33017 18.51405,-4.33017 6.48698,0 10.19589,0.4205 11.02539,1.25 0.74021,0.74021 3.92132,1.25896 7.8,1.27196 10.79001,0.0362 18.96457,5.25091 23.46185,14.96682 1.71496,3.70498 2.07779,6.38777 2.03018,15.01122 -0.049,8.88271 -0.46261,11.53145 -2.68505,17.1965 -9.25275,23.5855 -30.77208,40.84906 -50.75698,40.71902 -3.575,-0.0233 -7.625,-0.49399 -9,-1.04607 z M 380.89456,632.4721 c 0.43983,-0.72824 43.04899,-50.23308 94.68703,-110.01074 l 93.88733,-108.68667 42.11267,0.26074 42.11266,0.26075 7.18298,106.5 c 3.95064,58.575 7.21314,107.96749 7.25,109.76109 l 0.067,3.2611 -41.25,-0.2611 -41.24998,-0.26109 -0.5,-14.5 c -0.275,-7.975 -0.86406,-15.0625 -1.30902,-15.75 -0.62741,-0.9694 -10.879,-1.25 -45.66821,-1.25 -24.67256,0 -45.5866,0.27913 -46.47566,0.62029 -0.88905,0.34117 -7.24713,7.54117 -14.12907,16 l -12.51261,15.37971 -42.50241,0 c -35.00609,0 -42.36136,-0.23353 -41.70271,-1.32408 z M 583.69425,522.80988 c 0,-30.12667 -0.16317,-33.51773 -1.62634,-33.79951 -1.10863,-0.21351 -9.08615,9.17266 -25.0611,29.4863 -28.51708,36.26215 -28.21101,35.84579 -27.3613,37.22065 0.48273,0.78107 8.61469,1.03217 27.36777,0.84506 l 26.68097,-0.2662 z"
       id="path2993"
       inkscape:connector-curvature="0"
       sodipodi:nodetypes="cssssssccccssssssscccsssccscsssscssscsccscccssssssssssssssscssscccsscccssscscssssssscs" />
  </g>
  <g
     inkscape:groupmode="layer"
     id="layer2"
     inkscape:label="blu"
     style="display:inline">
    <path
       style="fill:url(#linearGradient3786);fill-opacity:1;stroke:#000000;stroke-width:2.29999995;stroke-miterlimit:4;stroke-opacity:0.56459333;stroke-dasharray:none;display:inline"
       d="m 1241.7961,639.61121 c -1.925,-0.2243 -7.775,-0.9036 -13,-1.5095 -12.3571,-1.4329 -29.398,-5.806 -39.6848,-10.1839 -23.5565,-10.0252 -39.2181,-27.5551 -44.871,-50.2235 -2.3109,-9.2668 -2.3386,-28.8987 -0.057,-40.7699 3.5861,-18.6626 10.9924,-36.4892 22.2474,-53.5482 8.3422,-12.6441 28.8772,-32.8407 42.7904,-42.0852 33.3594,-22.1654 69.5925,-32.3672 114.5754,-32.2599 65.3303,0.1557 103.0458,19.4474 113.7096,58.1632 2.5233,9.1607 2.4695,35.0896 -0.097,46.9595 -6.2291,28.8053 -18.7031,51.297 -40.5376,73.0929 -27.1906,27.1426 -61.7472,43.9702 -103.6921,50.4936 -9.4421,1.4685 -44.028,2.7278 -51.3825,1.8709 z m 46.8761,-55.4389 c 15.9066,-3.8133 30.6636,-13.5486 41.6518,-27.478 12.8307,-16.2651 22.4721,-42.1916 22.4721,-60.429 0,-15.6171 -8.5565,-27.1741 -23.4977,-31.7377 -8.0592,-2.4616 -27.2927,-2.4855 -36.5023,-0.045 -31.888,8.4489 -55.8339,38.1692 -62.5626,77.649 -3.8185,22.4045 4.4685,37.3223 23.5868,42.4599 8.1932,2.2017 24.7505,2.0027 34.8519,-0.4189 z m -469.71309,52.1887 c 14.41171,-36.5827 87.4615,-218.0516 88.12431,-218.9167 1.39351,-1.819 85.23356,-1.819 86.38796,0 0.4363,0.6875 8.96542,27.5049 18.95342,59.5944 9.9881,32.0894 18.6576,58.8419 19.2657,59.45 0.6976,0.6976 1.4521,0.755 2.0447,0.1556 0.5166,-0.5225 11.389,-27.275 24.1609,-59.45 12.772,-32.175 23.6545,-59.0625 24.1834,-59.75 0.7407,-0.963 10.1047,-1.25 40.78,-1.25 21.9002,0 40.06,0.3906 40.3551,0.8681 0.2951,0.4775 -19.3686,50.09 -43.6971,110.25 l -44.2336,109.3819 -43.0661,0.2604 -43.06602,0.2605 -17.8404,-61.5105 c -14.092,-48.5865 -18.1798,-61.5104 -19.4552,-61.5104 -1.2012,0 -7.9134,15.6894 -26.20386,61.25 l -24.58914,61.25 -41.22056,0.2611 c -22.67131,0.1437 -41.0689,-0.1238 -40.88351,-0.5944 z m 642.83959,-5.9167 c 0.01,-18.0439 5.0761,-212.5683 5.5597,-213.3509 0.6702,-1.0843 86.1175,-1.2312 86.7762,-0.1491 0.2511,0.4125 -0.4076,26.85 -1.4638,58.75 -2.0662,62.406 -2.0821,70 -0.147,70 0.6752,0 22.4397,-28.8 48.3655,-64 25.9257,-35.2 47.6483,-64.3307 48.2723,-64.7347 0.624,-0.4041 21.305,-0.7416 45.9578,-0.75 39.1485,-0.013 44.7824,0.1729 44.5,1.4714 -0.1778,0.8177 -39.8565,50.5427 -88.1748,110.5 l -87.8515,109.0133 -50.8985,0 -50.8985,0 0,-6.75 z m 134.9974,5.9925 c 0,-0.7151 160.02,-204.5808 169.1463,-215.4925 l 3.9728,-4.75 37.3814,0 c 22.6587,0 37.6138,0.3759 37.9715,0.9546 0.5103,0.8258 13.5238,209.8743 13.5269,217.2954 l 0,2.75 -37.393,0 c -33.1751,0 -37.4615,-0.1785 -38,-1.5818 -0.3339,-0.87 -0.607,-7.6042 -0.607,-14.9648 0,-12.208 -0.1698,-13.474 -1.9343,-14.4183 -2.9987,-1.6048 -81.1931,-1.4033 -83.3483,0.2149 -0.9156,0.6875 -6.5259,7.775 -12.4673,15.75 l -10.8026,14.5 -38.7237,0.2617 c -21.297,0.144 -38.7227,-0.09 -38.7227,-0.5192 z m 184.8,-77.4425 c 2.2303,-2.2304 0.9131,-66.8 -1.3628,-66.8 -0.6849,0 -10.8279,13.3875 -22.54,29.75 -11.712,16.3625 -22.1658,30.955 -23.2306,32.4278 -1.0648,1.4728 -1.6645,3.3853 -1.3327,4.25 0.5248,1.3674 3.6421,1.5722 23.9347,1.5722 16.8133,0 23.6666,-0.3353 24.5314,-1.2 z m -1076.08244,76.1084 c -8.15009,-1.9191 -14.11113,-7.0614 -17.86172,-15.4084 -3.31873,-7.386 -3.14937,-20.3585 0.39603,-30.3346 5.85465,-16.4741 17.54391,-29.9942 32.21978,-37.2664 7.59608,-3.764 9.58749,-4.3132 17.06405,-4.7056 4.6554,-0.2443 8.46436,-0.048 8.46436,0.4362 0,0.4843 -2.5875,1.8942 -5.75,3.1331 -13.05587,5.1146 -26.47321,18.2584 -33.4186,32.7373 -9.24667,19.2762 -8.48185,36.717 2.14066,48.8154 3.36308,3.8303 3.05212,4.078 -3.25456,2.593 z m -599.7175,-71.9581 c -7.974996,-0.3845 -15.737496,-0.7556 -17.249996,-0.8247 -1.5125,-0.069 -26.536624,-4.04779 -26.536624,-4.68819 0,-1.0145 142.09864,-391.89259 157.80305,-439.15377 10.01387,-30.135943 19.42356,-43.905443 33.95704,-58.555073 15.75848,-15.88443 56.74922,-10.649354 82.31315,-14.838204 7.88107,-1.29137 94.12028,-8.198731 837.20142,-4.876829 379.167,1.695045 503.5148,4.955076 740.7655,5.366069 85.4886,0.148093 152.8814,-3.95378 166.6664,19.183393 11.8385,21.218999 5.4586,54.467284 -35.9647,173.408024 -59.1817,188.46892 -101.4808,316.69934 -104.4792,329.17234 -5.942,0.9503 -51.814,-3.32216 -52.9016,-4.21146 -0.4504,-0.3683 29.0378,-91.23969 63.4525,-197.78319 48.3014,-149.53489 39.5309,-100.56155 49.8326,-138.51656 14.7728,-54.42832 35.8778,-79.87374 16.1101,-104.99918 -13.0938,-16.64257 -50.4779,-11.21941 -110.5382,-11.5267 -40.4025,-0.20671 -237.4346,-3.17089 -746.7209,-4.88513 -556.11828,-1.87187 -798.71391,7.09947 -805.49995,7.8435 -41.94358,4.59876 -63.2229,18.77249 -79.66335,53.06219 -6.33156,13.20565 -2.16312,0.59743 -74.09794,224.12317 l -55.91606,173.75 -12.01662,-0.1754 c -6.60914,-0.096 -18.54162,-0.4899 -26.51662,-0.8743 z"
       id="path2989"
       inkscape:connector-curvature="0"
       sodipodi:nodetypes="cssscsssscsscccssscssccscssscscssscccssscssccsssscscscccccsscscccscsscscsscssscscssssssssssccssssssccccssssssssccc" />
  </g>
</svg>
