<?xml version="1.0" encoding="UTF-8" standalone="no"?>
<!-- Created with Inkscape (http://www.inkscape.org/) -->

<svg
   xmlns:dc="http://purl.org/dc/elements/1.1/"
   xmlns:cc="http://creativecommons.org/ns#"
   xmlns:rdf="http://www.w3.org/1999/02/22-rdf-syntax-ns#"
   xmlns:svg="http://www.w3.org/2000/svg"
   xmlns="http://www.w3.org/2000/svg"
   xmlns:xlink="http://www.w3.org/1999/xlink"
   xmlns:sodipodi="http://sodipodi.sourceforge.net/DTD/sodipodi-0.dtd"
   xmlns:inkscape="http://www.inkscape.org/namespaces/inkscape"
   id="svg2"
   version="1.1"
   inkscape:version="0.48.3.1 r9886"
   width="2134"
   height="635"
   sodipodi:docname="LogoCaNova1.svg">
  <metadata
     id="metadata8">
    <rdf:RDF>
      <cc:Work
         rdf:about="">
        <dc:format>image/svg+xml</dc:format>
        <dc:type
           rdf:resource="http://purl.org/dc/dcmitype/StillImage" />
        <dc:title></dc:title>
      </cc:Work>
    </rdf:RDF>
  </metadata>
  <defs
     id="defs6">
    <linearGradient
       id="linearGradient3790">
      <stop
         style="stop-color:#e10512;stop-opacity:1;"
         offset="0"
         id="stop3792" />
      <stop
         id="stop3798"
         offset="0.5"
         style="stop-color:#e10512;stop-opacity:0.65217394;" />
      <stop
         style="stop-color:#e10512;stop-opacity:0.6695652;"
         offset="1"
         id="stop3794" />
    </linearGradient>
    <linearGradient
       id="linearGradient3780">
      <stop
         style="stop-color:#014898;stop-opacity:1;"
         offset="0"
         id="stop3782" />
      <stop
         id="stop3788"
         offset="0.5"
         style="stop-color:#014898;stop-opacity:0.49803922;" />
      <stop
         style="stop-color:#0148ab;stop-opacity:0.86086959;"
         offset="1"
         id="stop3784" />
    </linearGradient>
    <linearGradient
       inkscape:collect="always"
       xlink:href="#linearGradient3790"
       id="linearGradient3846"
       gradientUnits="userSpaceOnUse"
       x1="11.269433"
       y1="322.96358"
       x2="2130.6461"
       y2="322.96358" />
    <linearGradient
       inkscape:collect="always"
       xlink:href="#linearGradient3780"
       id="linearGradient3849"
       gradientUnits="userSpaceOnUse"
       x1="85.796164"
       y1="348.54399"
       x2="2069.7363"
       y2="348.54399" />
    <linearGradient
       inkscape:collect="always"
       xlink:href="#linearGradient3780"
       id="linearGradient3871"
       gradientUnits="userSpaceOnUse"
       x1="85.796164"
       y1="348.54399"
       x2="2069.7363"
       y2="348.54399" />
  </defs>
  <sodipodi:namedview
     pagecolor="#ffffff"
     bordercolor="#666666"
     borderopacity="1"
     objecttolerance="10"
     gridtolerance="10"
     guidetolerance="10"
     inkscape:pageopacity="0"
     inkscape:pageshadow="2"
     inkscape:window-width="1366"
     inkscape:window-height="720"
     id="namedview4"
     showgrid="false"
     inkscape:zoom="0.29428304"
     inkscape:cx="1148.9274"
     inkscape:cy="196.3391"
     inkscape:window-x="0"
     inkscape:window-y="0"
     inkscape:window-maximized="1"
     inkscape:current-layer="layer1" />
  <g
     id="g2987"
     transform="translate(1722.8312,129.12739)">
    <path
       style="fill:#fefefe"
       d="M 0,317.5 0,0 l 1067,0 1067,0 0,317.5 0,317.5 -1067,0 L 0,635 0,317.5 z"
       id="path3003"
       inkscape:connector-curvature="0" />
  </g>
  <g
     inkscape:groupmode="layer"
     id="layer1"
     inkscape:label="rosso]"
     style="display:inline">
    <path
       style="fill:url(#linearGradient3846);fill-opacity:1;fill-rule:evenodd;stroke:#000000;stroke-opacity:0.51674643;display:inline"
       d="m 242.19427,637.25849 c -88.37225,-6.08186 -32.92482,-221.4986 20.38254,-272.77208 52.00738,-63.7877 154.99755,-69.55152 190.7636,19.52485 18.18069,44.12851 -61.17332,37.41418 -85.43768,1.04607 -14.51669,-33.47979 -50.72652,-17.90136 -100.59732,100.01601 -67.58901,133.56337 19.12814,159.59415 70.38879,66.72759 24.90773,1.54562 58.11499,-3.05833 77.94991,2.246 -24.77095,69.93169 -106.47548,92.48587 -173.44984,83.21156 z M 11.273172,635.12951 C 71.808784,452.28064 126.98066,267.54291 189.11057,85.301168 230.00254,-7.2698624 337.02945,6.5319052 419.34736,7.6513128 972.55757,7.2537755 1525.7747,6.6349388 2078.9808,8.3580016 c 92.4844,27.7253814 32.7178,129.0332784 16.4368,189.2221384 -46.3202,145.28494 -92.3044,290.68129 -139.4348,435.70507 -109.0855,22.47214 5.1035,-115.2446 2.0552,-165.58639 38.7325,-127.07579 89.2331,-252.35028 108.1723,-384.194915 C 1920.8088,63.709896 1772.1555,70.161556 1625.3914,64.855403 1183.297,60.2599 740.98804,55.998363 298.9889,67.77173 228.73726,77.554926 220.36617,174.55124 196.59662,230.3979 158.11307,367.78902 103.10192,499.6888 59.802672,635.5054 c -15.579014,1.52415 -34.461958,0.69339 -48.5295,-0.37589 z m 712.921078,-1.46388 c -102.10057,-18.50991 42.74315,-152.54926 62.44203,-56.86945 -0.008,30.68368 -30.39765,63.42115 -62.44203,56.86945 z M 380.89456,632.4721 c 62.58109,-73.13709 152.88764,-220.56783 215.75907,-293.45537 28.07511,0.17382 32.3636,3.74574 60.43871,3.91958 4.82607,73.17395 6.74291,217.6829 11.10189,290.88206 -27.49999,-0.17407 -54.99999,-0.34813 -82.49998,-0.52219 5.93929,-53.26421 -102.74875,-43.85041 -120.59457,0.5 -28.04455,-0.54292 -56.29637,1.3025 -84.20512,-1.32408 z M 621.07323,410.67294 c 21.04473,-85.15561 -197.28191,207.92585 -50.78455,159.34935 73.03268,-17.30266 50.41433,-45.95767 50.78455,-159.34935 z"
       id="path2993"
       inkscape:connector-curvature="0"
       sodipodi:nodetypes="cccccccccccccccccccccccccccccccccc" />
  </g>
  <g
     inkscape:groupmode="layer"
     id="layer2"
     inkscape:label="blu"
     style="display:inline">
    <path
       style="fill:url(#linearGradient3871);fill-opacity:1;stroke:#000000;stroke-width:2.29999995;stroke-miterlimit:4;stroke-opacity:0.56459333;stroke-dasharray:none;display:inline"
       d="m 1241.7961,639.61121 c -92.9527,-8.45889 -93.5498,-147.37532 -46.9402,-206.23136 47.3499,-75.6704 150.9086,-133.54275 236.2017,-83.11561 46.686,61.61909 12.3802,146.43776 -19.8859,206.99207 -31.1619,64.17837 -101.7417,87.60624 -169.3756,82.3549 z m 46.8761,-55.4389 c 66.1184,-20.87437 97.3022,-100.49666 98.1459,-164.91401 -21.6675,-88.36104 -133.3607,-7.19644 -146.1928,50.30088 -18.7039,40.84197 -18.9784,130.18282 48.0469,114.61313 z m -469.71309,52.1887 c 37.31094,-96.6912 63.79286,-197.207 101.71667,-293.67466 93.17572,-4.87718 47.71673,115.83315 106.00542,238.91584 73.3284,-46.25313 34.039,-182.19502 89.4409,-210.84341 36.4919,-40.0149 92.1874,-26.27 52.5972,25.95161 -30.8625,80.10383 -61.6213,160.25168 -93.4354,239.98392 -53.1912,4.50909 -106.77063,9.01663 -103.92697,-61.2738 -8.6784,-25.18106 -32.25964,-142.35202 -46.68476,-81.96731 -23.48542,74.95255 -21.32316,159.26411 -105.71306,142.90781 z m 642.83959,-5.9167 c 1.2702,-96.03943 -3.5462,-192.07528 -1.2365,-288.10886 90.731,-29.9569 74.9698,41.91678 49.007,91.5859 -23.3053,54.50624 8.3851,210.90556 52.5433,123.65032 46.5411,-65.92484 95.536,-171.97773 165.8072,-215.31033 83.2209,-5.99587 -37.9515,90.45497 -48.9357,130.40228 -39.6613,54.06446 -73.1529,118.95354 -119.5996,164.53069 -32.5294,0 -65.0589,0 -97.5883,0 l 0,-4.20866 0,-0.0121 0,-2.52924 0,0 z m 134.9974,5.9925 c 72.4286,-94.40353 137.0033,-194.59981 210.4981,-288.20428 71.3231,-16.9207 32.0158,49.03399 40.9317,162.204 8.878,148.37142 1.2112,162.7402 -71.9989,92.92775 C 1749.4625,539.725 1649.8914,667.28 1596.7961,636.43681 z M 1764.903,484.55718 c -37.8348,52.31338 -124.6252,113.62367 24.5972,64.46431 45.8769,-23.62184 47.1684,-198.9554 -24.5972,-64.46431 z M 705.51366,635.10271 c -82.35755,-29.0148 85.41672,-130.4527 0.4293,-54.73653 -10.53885,17.17064 -0.44269,36.64015 -0.4293,54.73653 z m -599.7175,-71.9581 C 15.25621,543.36333 129.94241,432.48958 128.8737,373.32932 164.36055,276.71586 195.86827,178.60518 235.09626,83.393046 294.18816,14.451634 394.95625,56.415011 473.16107,42.403206 955.03935,40.183712 1437.4022,36.293796 1918.96,46.609298 c 67.5082,-18.578635 204.8131,-5.710383 148.4367,94.088732 -44.3493,140.82716 -90.6306,281.06414 -138.529,420.73568 -101.6663,11.57783 10.9316,-188.30615 24.0114,-233.45159 24.588,-78.7023 31.2928,-91.23684 48.1298,-172.17002 -42.9527,-83.042935 -153.0112,-36.42998 -226.2732,-43.35771 -473.5762,-0.0937 -947.15478,-1.07171 -1420.72895,0.80456 -99.19227,8.25203 -97.91517,129.63152 -129.09163,200.53333 -26.86595,83.46604 -53.7225,166.93511 -80.58572,250.40203 -12.84851,-0.15355 -25.69817,-0.41935 -38.53324,-1.0497 z"
       id="path2989"
       inkscape:connector-curvature="0"
       sodipodi:nodetypes="cccccccccccccccccccccccccccccccccccccccccccccccccccccccc" />
  </g>
</svg>
